Coordinates
version=1
nRows=13
nColumns=22
inDegrees=yes

Units are S.I. units (second, meters, Newtons, ...)
If the header above contains a line with 'inDegrees', this indicates whether rotational values are in degrees (yes) or radians (no).

endheader
time	pelvis_tilt	pelvis_list	pelvis_rotation	pelvis_tx	pelvis_ty	pelvis_tz	hip_flexion_r	hip_adduction_r	hip_rotation_r	knee_angle_r	ankle_angle_r	subtalar_angle_r	hip_flexion_l	hip_adduction_l	hip_rotation_l	knee_angle_l	ankle_angle_l	subtalar_angle_l	lumbar_extension	lumbar_bending	lumbar_rotation
      6.58000000	    -11.82005674	     -5.00454889	     -1.70532108	      0.69475168	      0.97619112	      0.36458137	     17.08063590	      9.71622525	     -1.33530911	    -18.72479946	     18.19860444	    -11.10158604	     39.54299859	     -7.44423053	      1.14406779	    -25.07121225	      9.52303684	      4.95430617	     -0.13479634	      6.44577625	      7.03523523
      6.59000000	    -11.83926393	     -5.05068617	     -1.81532891	      0.69767126	      0.97589987	      0.36381145	     16.86054802	      9.73288460	     -1.22489642	    -18.64386989	     18.35210200	    -11.06656669	     39.51915865	     -7.51285087	      1.17605361	    -24.33339398	      9.54497406	      5.24183711	     -0.11553443	      6.51247566	      7.07099954
      6.60000000	    -11.92361183	     -5.12976237	     -1.91631588	      0.70065463	      0.97544980	      0.36299918	     16.71164334	      9.77435448	     -1.17260875	    -18.57253175	     18.50413101	    -11.06522661	     39.55591186	     -7.60020170	      1.25292855	    -23.65013293	      9.66091846	      5.29410369	     -0.00988592	      6.61852241	      7.09102800
      6.61000000	    -11.97030108	     -5.21735166	     -2.03650757	      0.70375442	      0.97504110	      0.36221570	     16.50406745	      9.83186943	     -1.06541821	    -18.48732139	     18.67736724	    -11.00716208	     39.52672086	     -7.71845142	      1.26793568	    -23.01676133	      9.86819447	      5.40312878	      0.05260896	      6.73306602	      7.08608356
      6.62000000	    -11.99655299	     -5.31156790	     -2.16346214	      0.70700546	      0.97465504	      0.36141626	     16.24996813	      9.88949621	     -0.99729056	    -18.37107346	     18.84923162	    -10.88562995	     39.44770409	     -7.85088039	      1.24455041	    -22.43500375	     10.11114619	      5.53220104	      0.10222012	      6.84915915	      7.12221679
      6.63000000	    -12.04072021	     -5.40743354	     -2.29148771	      0.71035177	      0.97420224	      0.36058407	     16.01699813	      9.94666590	     -0.91923089	    -18.27455798	     19.03151965	    -10.77492666	     39.36180951	     -7.98117955	      1.22752482	    -21.90592311	     10.37027093	      5.61217840	      0.17963316	      6.96983784	      7.12645100
      6.64000000	    -12.09729717	     -5.50475469	     -2.42121034	      0.71380194	      0.97368513	      0.35972863	     15.79993701	     10.00578634	     -0.82054981	    -18.20021666	     19.22566858	    -10.69769811	     39.26337611	     -8.10828367	      1.21917684	    -21.43647881	     10.63247160	      5.65940531	      0.27986068	      7.09197674	      7.09947812
      6.65000000	    -12.11606367	     -5.61115189	     -2.56244373	      0.71741797	      0.97321213	      0.35884313	     15.51861312	     10.07131488	     -0.70406344	    -18.10308391	     19.42498118	    -10.55847923	     39.09598126	     -8.24935182	      1.18479735	    -21.03693272	     10.89186187	      5.71758427	      0.34445467	      7.22606594	      7.09580276
      6.66000000	    -12.11668963	     -5.71339083	     -2.70302130	      0.72118931	      0.97274228	      0.35792152	     15.20695388	     10.12725938	     -0.58676502	    -18.00459293	     19.63496150	    -10.38383112	     38.87852802	     -8.37941537	      1.15856607	    -20.70313548	     11.11289401	      5.77208799	      0.40114738	      7.35088951	      7.08758641
      6.67000000	    -12.12173581	     -5.81276365	     -2.84402936	      0.72509022	      0.97223279	      0.35695034	     14.89828635	     10.17636661	     -0.45584253	    -17.92116523	     19.86005139	    -10.21847297	     38.64098236	     -8.49773878	      1.14444418	    -20.44017577	     11.29146204	      5.81186692	      0.47453639	      7.47303787	      7.06178544
      6.68000000	    -12.10123147	     -5.90638707	     -2.98730322	      0.72914903	      0.97175000	      0.35593844	     14.55189198	     10.21450702	     -0.31886349	    -17.83775611	     20.08853638	    -10.00657221	     38.35204903	     -8.60749913	      1.10862760	    -20.24659272	     11.41371496	      5.85108787	      0.53137788	      7.58634602	      7.04214985
      6.69000000	    -12.07616967	     -5.97804248	     -3.12268375	      0.73336586	      0.97127209	      0.35484842	     14.19139840	     10.21888320	     -0.19915689	    -17.75225639	     20.32986188	     -9.74957885	     38.03615721	     -8.68524232	      1.05215071	    -20.11066895	     11.44954249	      5.89139704	      0.60103651	      7.67340121	      7.02487746
      6.70000000	    -12.07049268	     -6.03892684	     -3.26284528	      0.73765094	      0.97074842	      0.35371595	     13.87214443	     10.21401174	     -0.04206874	    -17.71669396	     20.59420311	     -9.54670460	     37.73921742	     -8.75236592	      0.95821895	    -20.03925616	     11.38598847	      5.92415580	      0.69984909	      7.75397897	      6.97765154
